# Blender v2.79 (sub 0) OBJ File: ''
# www.blender.org
mtllib 7.mtl
o Text_CUText.001
v -0.827123 0.146932 -0.489573
v -0.617016 0.146932 -0.960212
v -0.864942 0.146932 -0.960212
v -0.864942 0.146932 -1.038372
v -0.494313 0.146932 -1.038372
v -0.754005 0.146932 -0.457637
v -0.827123 0.083059 -0.489573
v -0.617016 0.083059 -0.960212
v -0.864942 0.083059 -0.960212
v -0.864942 0.083059 -1.038372
v -0.494313 0.083059 -1.038372
v -0.754005 0.083059 -0.457637
v -0.827123 0.083059 -0.489573
v -0.827123 0.146932 -0.489573
v -0.617016 0.083059 -0.960212
v -0.617016 0.146932 -0.960212
v -0.864942 0.083059 -0.960212
v -0.864942 0.146932 -0.960212
v -0.864942 0.083059 -1.038372
v -0.864942 0.146932 -1.038372
v -0.494313 0.083059 -1.038372
v -0.494313 0.146932 -1.038372
v -0.754005 0.083059 -0.457637
v -0.754005 0.146932 -0.457637
vn 0.0000 1.0000 0.0000
vn 0.0000 -1.0000 0.0000
vn -0.9325 0.0000 0.3612
vn -0.8389 0.0000 0.5442
vn -0.7071 0.0000 0.7071
vn -0.7071 0.0000 -0.7071
vn 0.8391 0.0000 -0.5439
vn 0.3609 0.0000 0.9326
usemtl None
s off
f 3//1 5//1 4//1
f 3//1 2//1 5//1
f 2//1 6//1 5//1
f 1//1 6//1 2//1
f 11//2 9//2 10//2
f 8//2 9//2 11//2
f 12//2 8//2 11//2
f 12//2 7//2 8//2
s 1
f 14//3 16//4 15//4 13//3
f 16//4 18//5 17//5 15//4
f 18//5 20//6 19//6 17//5
f 20//6 22//7 21//7 19//6
f 22//7 24//8 23//8 21//7
f 24//8 14//3 13//3 23//8
