# Blender v2.79 (sub 0) OBJ File: ''
# www.blender.org
mtllib Li.mtl
o Text.001_CUText.002
v -0.224799 0.171686 0.947501
v -0.224799 0.171686 0.277658
v -0.092023 0.171686 0.277658
v -0.092023 0.171686 0.947501
v -0.168309 0.171686 0.153104
v -0.178544 0.171686 0.150981
v -0.188271 0.171686 0.147563
v -0.197393 0.171686 0.142948
v -0.205809 0.171686 0.137236
v -0.213423 0.171686 0.130523
v -0.220136 0.171686 0.122909
v -0.225848 0.171686 0.114493
v -0.230463 0.171686 0.105371
v -0.233881 0.171686 0.095644
v -0.236004 0.171686 0.085409
v -0.236733 0.171686 0.074765
v -0.236004 0.171686 0.064121
v -0.233881 0.171686 0.053886
v -0.230463 0.171686 0.044159
v -0.225848 0.171686 0.035037
v -0.220136 0.171686 0.026621
v -0.213423 0.171686 0.019007
v -0.205809 0.171686 0.012294
v -0.197393 0.171686 0.006582
v -0.188271 0.171686 0.001967
v -0.178544 0.171686 -0.001451
v -0.168309 0.171686 -0.003574
v -0.157665 0.171686 -0.004303
v -0.147021 0.171686 -0.003574
v -0.136786 0.171686 -0.001451
v -0.127059 0.171686 0.001967
v -0.117938 0.171686 0.006581
v -0.109521 0.171686 0.012294
v -0.101907 0.171686 0.019007
v -0.095194 0.171686 0.026621
v -0.089482 0.171686 0.035037
v -0.084867 0.171686 0.044158
v -0.081449 0.171686 0.053886
v -0.079326 0.171686 0.064121
v -0.078597 0.171686 0.074765
v -0.079326 0.171686 0.085409
v -0.081449 0.171686 0.095644
v -0.084867 0.171686 0.105371
v -0.089482 0.171686 0.114493
v -0.095194 0.171686 0.122909
v -0.101907 0.171686 0.130523
v -0.109521 0.171686 0.137236
v -0.117937 0.171686 0.142948
v -0.127059 0.171686 0.147563
v -0.136786 0.171686 0.150981
v -0.147021 0.171686 0.153104
v -0.157665 0.171686 0.153833
v -0.336688 0.171686 0.816218
v -0.336688 0.171686 0.947501
v -0.942382 0.171686 0.947501
v -0.942382 0.171686 -0.069945
v -0.796180 0.171686 -0.069945
v -0.796180 0.171686 0.816218
v -0.224799 0.058305 0.947501
v -0.224799 0.058305 0.277658
v -0.092023 0.058305 0.277658
v -0.092023 0.058305 0.947501
v -0.168309 0.058305 0.153104
v -0.178544 0.058305 0.150981
v -0.188271 0.058305 0.147563
v -0.197393 0.058305 0.142948
v -0.205809 0.058305 0.137236
v -0.213423 0.058305 0.130523
v -0.220136 0.058305 0.122909
v -0.225848 0.058305 0.114493
v -0.230463 0.058305 0.105371
v -0.233881 0.058305 0.095644
v -0.236004 0.058305 0.085409
v -0.236733 0.058305 0.074765
v -0.236004 0.058305 0.064121
v -0.233881 0.058305 0.053886
v -0.230463 0.058305 0.044159
v -0.225848 0.058305 0.035037
v -0.220136 0.058305 0.026621
v -0.213423 0.058305 0.019007
v -0.205809 0.058305 0.012294
v -0.197393 0.058305 0.006582
v -0.188271 0.058305 0.001967
v -0.178544 0.058305 -0.001451
v -0.168309 0.058305 -0.003574
v -0.157665 0.058305 -0.004303
v -0.147021 0.058305 -0.003574
v -0.136786 0.058305 -0.001451
v -0.127059 0.058305 0.001967
v -0.117938 0.058305 0.006581
v -0.109521 0.058305 0.012294
v -0.101907 0.058305 0.019007
v -0.095194 0.058305 0.026621
v -0.089482 0.058305 0.035037
v -0.084867 0.058305 0.044158
v -0.081449 0.058305 0.053886
v -0.079326 0.058305 0.064121
v -0.078597 0.058305 0.074765
v -0.079326 0.058305 0.085409
v -0.081449 0.058305 0.095644
v -0.084867 0.058305 0.105371
v -0.089482 0.058305 0.114493
v -0.095194 0.058305 0.122909
v -0.101907 0.058305 0.130523
v -0.109521 0.058305 0.137236
v -0.117937 0.058305 0.142948
v -0.127059 0.058305 0.147563
v -0.136786 0.058305 0.150981
v -0.147021 0.058305 0.153104
v -0.157665 0.058305 0.153833
v -0.336688 0.058305 0.816218
v -0.336688 0.058305 0.947501
v -0.942382 0.058305 0.947501
v -0.942382 0.058305 -0.069945
v -0.796180 0.058305 -0.069945
v -0.796180 0.058305 0.816218
v -0.336688 0.058305 0.816218
v -0.336688 0.171686 0.816218
v -0.336688 0.058305 0.947501
v -0.336688 0.171686 0.947501
v -0.942382 0.058305 0.947501
v -0.942382 0.171686 0.947501
v -0.942382 0.058305 -0.069945
v -0.942382 0.171686 -0.069945
v -0.796180 0.058305 -0.069945
v -0.796180 0.171686 -0.069945
v -0.796180 0.058305 0.816218
v -0.796180 0.171686 0.816218
v -0.224799 0.058305 0.947501
v -0.224799 0.171686 0.947501
v -0.224799 0.058305 0.277658
v -0.224799 0.171686 0.277658
v -0.092023 0.058305 0.277658
v -0.092023 0.171686 0.277658
v -0.092023 0.058305 0.947501
v -0.092023 0.171686 0.947501
v -0.168309 0.058305 0.153104
v -0.168309 0.171686 0.153104
v -0.178544 0.058305 0.150981
v -0.178544 0.171686 0.150981
v -0.188271 0.058305 0.147563
v -0.188271 0.171686 0.147563
v -0.197393 0.058305 0.142948
v -0.197393 0.171686 0.142948
v -0.205809 0.058305 0.137236
v -0.205809 0.171686 0.137236
v -0.213423 0.058305 0.130523
v -0.213423 0.171686 0.130523
v -0.220136 0.058305 0.122909
v -0.220136 0.171686 0.122909
v -0.225848 0.058305 0.114493
v -0.225848 0.171686 0.114493
v -0.230463 0.058305 0.105371
v -0.230463 0.171686 0.105371
v -0.233881 0.058305 0.095644
v -0.233881 0.171686 0.095644
v -0.236004 0.058305 0.085409
v -0.236004 0.171686 0.085409
v -0.236733 0.058305 0.074765
v -0.236733 0.171686 0.074765
v -0.236004 0.058305 0.064121
v -0.236004 0.171686 0.064121
v -0.233881 0.058305 0.053886
v -0.233881 0.171686 0.053886
v -0.230463 0.058305 0.044159
v -0.230463 0.171686 0.044159
v -0.225848 0.058305 0.035037
v -0.225848 0.171686 0.035037
v -0.220136 0.058305 0.026621
v -0.220136 0.171686 0.026621
v -0.213423 0.058305 0.019007
v -0.213423 0.171686 0.019007
v -0.205809 0.058305 0.012294
v -0.205809 0.171686 0.012294
v -0.197393 0.058305 0.006582
v -0.197393 0.171686 0.006582
v -0.188271 0.058305 0.001967
v -0.188271 0.171686 0.001967
v -0.178544 0.058305 -0.001451
v -0.178544 0.171686 -0.001451
v -0.168309 0.058305 -0.003574
v -0.168309 0.171686 -0.003574
v -0.157665 0.058305 -0.004303
v -0.157665 0.171686 -0.004303
v -0.147021 0.058305 -0.003574
v -0.147021 0.171686 -0.003574
v -0.136786 0.058305 -0.001451
v -0.136786 0.171686 -0.001451
v -0.127059 0.058305 0.001967
v -0.127059 0.171686 0.001967
v -0.117938 0.058305 0.006581
v -0.117938 0.171686 0.006581
v -0.109521 0.058305 0.012294
v -0.109521 0.171686 0.012294
v -0.101907 0.058305 0.019007
v -0.101907 0.171686 0.019007
v -0.095194 0.058305 0.026621
v -0.095194 0.171686 0.026621
v -0.089482 0.058305 0.035037
v -0.089482 0.171686 0.035037
v -0.084867 0.058305 0.044158
v -0.084867 0.171686 0.044158
v -0.081449 0.058305 0.053886
v -0.081449 0.171686 0.053886
v -0.079326 0.058305 0.064121
v -0.079326 0.171686 0.064121
v -0.078597 0.058305 0.074765
v -0.078597 0.171686 0.074765
v -0.079326 0.058305 0.085409
v -0.079326 0.171686 0.085409
v -0.081449 0.058305 0.095644
v -0.081449 0.171686 0.095644
v -0.084867 0.058305 0.105371
v -0.084867 0.171686 0.105371
v -0.089482 0.058305 0.114493
v -0.089482 0.171686 0.114493
v -0.095194 0.058305 0.122909
v -0.095194 0.171686 0.122909
v -0.101907 0.058305 0.130523
v -0.101907 0.171686 0.130523
v -0.109521 0.058305 0.137236
v -0.109521 0.171686 0.137236
v -0.117937 0.058305 0.142948
v -0.117937 0.171686 0.142948
v -0.127059 0.058305 0.147563
v -0.127059 0.171686 0.147563
v -0.136786 0.058305 0.150981
v -0.136786 0.171686 0.150981
v -0.147021 0.058305 0.153104
v -0.147021 0.171686 0.153104
v -0.157665 0.058305 0.153833
v -0.157665 0.171686 0.153833
vn 0.0000 1.0000 0.0000
vn 0.0000 -1.0000 0.0000
vn 0.7071 0.0000 -0.7071
vn 0.7071 0.0000 0.7071
vn -0.7071 0.0000 0.7071
vn -0.7071 0.0000 -0.7071
vn -0.1360 0.0000 0.9907
vn -0.2679 0.0000 0.9634
vn -0.3923 0.0000 0.9198
vn -0.5076 0.0000 0.8616
vn -0.6127 0.0000 0.7903
vn -0.7903 0.0000 0.6127
vn -0.8616 0.0000 0.5076
vn -0.9198 0.0000 0.3923
vn -0.9634 0.0000 0.2679
vn -0.9907 0.0000 0.1361
vn -1.0000 0.0000 0.0000
vn -0.9907 0.0000 -0.1361
vn -0.9634 0.0000 -0.2679
vn -0.9198 0.0000 -0.3923
vn -0.8616 0.0000 -0.5076
vn -0.7903 0.0000 -0.6127
vn -0.6127 0.0000 -0.7903
vn -0.5076 0.0000 -0.8616
vn -0.3923 0.0000 -0.9198
vn -0.2679 0.0000 -0.9634
vn -0.1361 0.0000 -0.9907
vn 0.0000 0.0000 -1.0000
vn 0.1360 0.0000 -0.9907
vn 0.2679 0.0000 -0.9634
vn 0.3923 0.0000 -0.9198
vn 0.5075 0.0000 -0.8616
vn 0.6127 0.0000 -0.7903
vn 0.7903 0.0000 -0.6127
vn 0.8616 0.0000 -0.5076
vn 0.9198 0.0000 -0.3923
vn 0.9634 0.0000 -0.2679
vn 0.9907 0.0000 -0.1361
vn 1.0000 0.0000 0.0000
vn 0.9907 0.0000 0.1360
vn 0.9634 0.0000 0.2679
vn 0.9198 0.0000 0.3923
vn 0.8616 0.0000 0.5075
vn 0.7903 0.0000 0.6127
vn 0.6127 0.0000 0.7903
vn 0.5075 0.0000 0.8616
vn 0.3923 0.0000 0.9198
vn 0.2679 0.0000 0.9634
vn 0.1361 0.0000 0.9907
vn 0.0000 0.0000 1.0000
usemtl None
s off
f 27//1 29//1 28//1
f 27//1 30//1 29//1
f 26//1 30//1 27//1
f 26//1 31//1 30//1
f 25//1 31//1 26//1
f 25//1 32//1 31//1
f 24//1 32//1 25//1
f 24//1 33//1 32//1
f 23//1 33//1 24//1
f 23//1 34//1 33//1
f 22//1 34//1 23//1
f 22//1 35//1 34//1
f 21//1 35//1 22//1
f 21//1 36//1 35//1
f 20//1 36//1 21//1
f 20//1 37//1 36//1
f 19//1 37//1 20//1
f 19//1 38//1 37//1
f 18//1 38//1 19//1
f 18//1 39//1 38//1
f 17//1 39//1 18//1
f 17//1 40//1 39//1
f 16//1 40//1 17//1
f 15//1 40//1 16//1
f 15//1 41//1 40//1
f 15//1 42//1 41//1
f 14//1 42//1 15//1
f 14//1 43//1 42//1
f 13//1 43//1 14//1
f 13//1 44//1 43//1
f 12//1 44//1 13//1
f 12//1 45//1 44//1
f 11//1 45//1 12//1
f 11//1 46//1 45//1
f 10//1 46//1 11//1
f 10//1 47//1 46//1
f 9//1 47//1 10//1
f 9//1 48//1 47//1
f 8//1 48//1 9//1
f 8//1 49//1 48//1
f 7//1 49//1 8//1
f 7//1 50//1 49//1
f 6//1 50//1 7//1
f 6//1 51//1 50//1
f 5//1 51//1 6//1
f 5//1 52//1 51//1
f 1//1 3//1 2//1
f 1//1 4//1 3//1
f 55//1 57//1 56//1
f 55//1 58//1 57//1
f 55//1 53//1 58//1
f 55//1 54//1 53//1
f 87//2 85//2 86//2
f 88//2 85//2 87//2
f 88//2 84//2 85//2
f 89//2 84//2 88//2
f 89//2 83//2 84//2
f 90//2 83//2 89//2
f 90//2 82//2 83//2
f 91//2 82//2 90//2
f 91//2 81//2 82//2
f 92//2 81//2 91//2
f 92//2 80//2 81//2
f 93//2 80//2 92//2
f 93//2 79//2 80//2
f 94//2 79//2 93//2
f 94//2 78//2 79//2
f 95//2 78//2 94//2
f 95//2 77//2 78//2
f 96//2 77//2 95//2
f 96//2 76//2 77//2
f 97//2 76//2 96//2
f 97//2 75//2 76//2
f 98//2 75//2 97//2
f 98//2 74//2 75//2
f 98//2 73//2 74//2
f 99//2 73//2 98//2
f 100//2 73//2 99//2
f 100//2 72//2 73//2
f 101//2 72//2 100//2
f 101//2 71//2 72//2
f 102//2 71//2 101//2
f 102//2 70//2 71//2
f 103//2 70//2 102//2
f 103//2 69//2 70//2
f 104//2 69//2 103//2
f 104//2 68//2 69//2
f 105//2 68//2 104//2
f 105//2 67//2 68//2
f 106//2 67//2 105//2
f 106//2 66//2 67//2
f 107//2 66//2 106//2
f 107//2 65//2 66//2
f 108//2 65//2 107//2
f 108//2 64//2 65//2
f 109//2 64//2 108//2
f 109//2 63//2 64//2
f 110//2 63//2 109//2
f 61//2 59//2 60//2
f 62//2 59//2 61//2
f 115//2 113//2 114//2
f 116//2 113//2 115//2
f 111//2 113//2 116//2
f 112//2 113//2 111//2
s 1
f 118//3 120//4 119//4 117//3
f 120//4 122//5 121//5 119//4
f 122//5 124//6 123//6 121//5
f 124//6 126//3 125//3 123//6
f 126//3 128//3 127//3 125//3
f 128//3 118//3 117//3 127//3
f 130//5 132//6 131//6 129//5
f 132//6 134//3 133//3 131//6
f 134//3 136//4 135//4 133//3
f 136//4 130//5 129//5 135//4
f 138//7 140//8 139//8 137//7
f 140//8 142//9 141//9 139//8
f 142//9 144//10 143//10 141//9
f 144//10 146//11 145//11 143//10
f 146//11 148//5 147//5 145//11
f 148//5 150//12 149//12 147//5
f 150//12 152//13 151//13 149//12
f 152//13 154//14 153//14 151//13
f 154//14 156//15 155//15 153//14
f 156//15 158//16 157//16 155//15
f 158//16 160//17 159//17 157//16
f 160//17 162//18 161//18 159//17
f 162//18 164//19 163//19 161//18
f 164//19 166//20 165//20 163//19
f 166//20 168//21 167//21 165//20
f 168//21 170//22 169//22 167//21
f 170//22 172//6 171//6 169//22
f 172//6 174//23 173//23 171//6
f 174//23 176//24 175//24 173//23
f 176//24 178//25 177//25 175//24
f 178//25 180//26 179//26 177//25
f 180//26 182//27 181//27 179//26
f 182//27 184//28 183//28 181//27
f 184//28 186//29 185//29 183//28
f 186//29 188//30 187//30 185//29
f 188//30 190//31 189//31 187//30
f 190//31 192//32 191//32 189//31
f 192//32 194//33 193//33 191//32
f 194//33 196//3 195//3 193//33
f 196//3 198//34 197//34 195//3
f 198//34 200//35 199//35 197//34
f 200//35 202//36 201//36 199//35
f 202//36 204//37 203//37 201//36
f 204//37 206//38 205//38 203//37
f 206//38 208//39 207//39 205//38
f 208//39 210//40 209//40 207//39
f 210//40 212//41 211//41 209//40
f 212//41 214//42 213//42 211//41
f 214//42 216//43 215//43 213//42
f 216//43 218//44 217//44 215//43
f 218//44 220//4 219//4 217//44
f 220//4 222//45 221//45 219//4
f 222//45 224//46 223//46 221//45
f 224//46 226//47 225//47 223//46
f 226//47 228//48 227//48 225//47
f 228//48 230//49 229//49 227//48
f 230//49 232//50 231//50 229//49
f 232//50 138//7 137//7 231//50
