# Blender v2.79 (sub 0) OBJ File: ''
# www.blender.org
mtllib ATOM2.mtl
o Text.005_CUText.007
v 7.189578 0.178876 0.403342
v 6.991211 0.178876 0.403342
v 6.601202 0.178876 -0.070720
v 6.206151 0.178876 0.403342
v 6.006103 0.178876 0.403342
v 6.500338 0.178876 -0.190076
v 6.041406 0.178876 -0.743149
v 6.241453 0.178876 -0.743149
v 6.601202 0.178876 -0.306070
v 6.959271 0.178876 -0.743149
v 7.157638 0.178876 -0.743149
v 6.700386 0.178876 -0.190076
v 7.189578 0.051115 0.403342
v 6.991211 0.051115 0.403342
v 6.601202 0.051115 -0.070720
v 6.206151 0.051115 0.403342
v 6.006103 0.051115 0.403342
v 6.500338 0.051115 -0.190076
v 6.041406 0.051115 -0.743149
v 6.241453 0.051115 -0.743149
v 6.601202 0.051115 -0.306070
v 6.959271 0.051115 -0.743149
v 7.157638 0.051115 -0.743149
v 6.700386 0.051115 -0.190076
v 7.189578 0.051115 0.403342
v 7.189578 0.178876 0.403342
v 6.991211 0.051115 0.403342
v 6.991211 0.178876 0.403342
v 6.601202 0.051115 -0.070720
v 6.601202 0.178876 -0.070720
v 6.206151 0.051115 0.403342
v 6.206151 0.178876 0.403342
v 6.006103 0.051115 0.403342
v 6.006103 0.178876 0.403342
v 6.500338 0.051115 -0.190076
v 6.500338 0.178876 -0.190076
v 6.041406 0.051115 -0.743149
v 6.041406 0.178876 -0.743149
v 6.241453 0.051115 -0.743149
v 6.241453 0.178876 -0.743149
v 6.601202 0.051115 -0.306070
v 6.601202 0.178876 -0.306070
v 6.959271 0.051115 -0.743149
v 6.959271 0.178876 -0.743149
v 7.157638 0.051115 -0.743149
v 7.157638 0.178876 -0.743149
v 6.700386 0.051115 -0.190076
v 6.700386 0.178876 -0.190076
vn 0.0000 1.0000 0.0000
vn 0.0000 -1.0000 0.0000
vn 0.9044 0.0000 0.4266
vn -0.4270 0.0000 0.9042
vn -0.0031 0.0000 1.0000
vn 0.4241 0.0000 0.9056
vn -0.9055 0.0000 0.4243
vn -1.0000 0.0000 -0.0009
vn -0.9051 0.0000 -0.4251
vn 0.4269 0.0000 -0.9043
vn -0.0011 0.0000 -1.0000
vn -0.4279 0.0000 -0.9038
vn 0.9048 0.0000 -0.4259
vn 1.0000 0.0000 0.0007
usemtl None
s off
f 6//1 8//1 7//1
f 6//1 9//1 8//1
f 9//1 11//1 10//1
f 9//1 12//1 11//1
f 6//1 12//1 9//1
f 5//1 12//1 6//1
f 5//1 3//1 12//1
f 3//1 1//1 12//1
f 5//1 4//1 3//1
f 2//1 1//1 3//1
f 20//2 18//2 19//2
f 21//2 18//2 20//2
f 23//2 21//2 22//2
f 24//2 21//2 23//2
f 24//2 18//2 21//2
f 24//2 17//2 18//2
f 15//2 17//2 24//2
f 13//2 15//2 24//2
f 16//2 17//2 15//2
f 13//2 14//2 15//2
s 1
f 26//3 28//4 27//4 25//3
f 28//4 30//5 29//5 27//4
f 30//5 32//6 31//6 29//5
f 32//6 34//7 33//7 31//6
f 34//7 36//8 35//8 33//7
f 36//8 38//9 37//9 35//8
f 38//9 40//10 39//10 37//9
f 40//10 42//11 41//11 39//10
f 42//11 44//12 43//12 41//11
f 44//12 46//13 45//13 43//12
f 46//13 48//14 47//14 45//13
f 48//14 26//3 25//3 47//14
o Text.004_CUText.006
v 4.259483 0.167689 0.286695
v 5.074847 0.167689 0.286695
v 4.473031 0.167689 1.110379
v 5.074847 0.167689 1.110379
v 5.074847 0.167689 1.232406
v 4.222043 0.167689 1.232406
v 4.823859 0.167689 0.408722
v 4.259483 0.167689 0.408722
v 4.259483 0.062302 0.286695
v 5.074847 0.062302 0.286695
v 4.473031 0.062302 1.110379
v 5.074847 0.062302 1.110379
v 5.074847 0.062302 1.232406
v 4.222043 0.062302 1.232406
v 4.823859 0.062302 0.408722
v 4.259483 0.062302 0.408722
v 4.259483 0.062302 0.286695
v 4.259483 0.167689 0.286695
v 5.074847 0.062302 0.286695
v 5.074847 0.167689 0.286695
v 4.473031 0.062302 1.110379
v 4.473031 0.167689 1.110379
v 5.074847 0.062302 1.110379
v 5.074847 0.167689 1.110379
v 5.074847 0.062302 1.232406
v 5.074847 0.167689 1.232406
v 4.222043 0.062302 1.232406
v 4.222043 0.167689 1.232406
v 4.823859 0.062302 0.408722
v 4.823859 0.167689 0.408722
v 4.259483 0.062302 0.408722
v 4.259483 0.167689 0.408722
vn 0.0000 1.0000 0.0000
vn 0.0000 -1.0000 0.0000
vn -0.7071 0.0000 -0.7071
vn 0.8916 0.0000 -0.4528
vn 0.7071 0.0000 -0.7071
vn 0.7071 0.0000 0.7071
vn -0.8916 0.0000 0.4528
vn -0.7071 0.0000 0.7071
usemtl None
s off
f 56//15 50//15 49//15
f 56//15 55//15 50//15
f 55//15 51//15 50//15
f 54//15 51//15 55//15
f 54//15 52//15 51//15
f 54//15 53//15 52//15
f 58//16 64//16 57//16
f 63//16 64//16 58//16
f 59//16 63//16 58//16
f 59//16 62//16 63//16
f 60//16 62//16 59//16
f 61//16 62//16 60//16
s 1
f 66//17 68//18 67//18 65//17
f 68//18 70//18 69//18 67//18
f 70//18 72//19 71//19 69//18
f 72//19 74//20 73//20 71//19
f 74//20 76//21 75//21 73//20
f 76//21 78//21 77//21 75//21
f 78//21 80//22 79//22 77//21
f 80//22 66//17 65//17 79//22
o Text.003_CUText.005
v 4.986100 0.167689 -0.465200
v 4.859913 0.167689 -0.743922
v 4.457778 0.167689 -0.743922
v 4.338523 0.167689 -0.465200
v 4.199856 0.167689 -0.465200
v 4.606152 0.167689 -1.416458
v 4.701832 0.167689 -1.416458
v 5.124767 0.167689 -0.465200
v 4.804446 0.167689 -0.865949
v 4.651912 0.167689 -1.208457
v 4.510471 0.167689 -0.865949
v 4.986100 0.062302 -0.465200
v 4.859913 0.062302 -0.743922
v 4.457778 0.062302 -0.743922
v 4.338523 0.062302 -0.465200
v 4.199856 0.062302 -0.465200
v 4.606152 0.062302 -1.416458
v 4.701832 0.062302 -1.416458
v 5.124767 0.062302 -0.465200
v 4.804446 0.062302 -0.865949
v 4.651912 0.062302 -1.208457
v 4.510471 0.062302 -0.865949
v 4.986100 0.062302 -0.465200
v 4.986100 0.167689 -0.465200
v 4.859913 0.062302 -0.743922
v 4.859913 0.167689 -0.743922
v 4.457778 0.062302 -0.743922
v 4.457778 0.167689 -0.743922
v 4.338523 0.062302 -0.465200
v 4.338523 0.167689 -0.465200
v 4.199856 0.062302 -0.465200
v 4.199856 0.167689 -0.465200
v 4.606152 0.062302 -1.416458
v 4.606152 0.167689 -1.416458
v 4.701832 0.062302 -1.416458
v 4.701832 0.167689 -1.416458
v 5.124767 0.062302 -0.465200
v 5.124767 0.167689 -0.465200
v 4.804446 0.062302 -0.865949
v 4.804446 0.167689 -0.865949
v 4.651912 0.062302 -1.208457
v 4.651912 0.167689 -1.208457
v 4.510471 0.062302 -0.865949
v 4.510471 0.167689 -0.865949
vn 0.0000 1.0000 -0.0000
vn 0.0000 -1.0000 0.0000
vn -0.5420 0.0000 0.8404
vn 0.5507 0.0000 0.8347
vn -0.8345 0.0000 0.5510
vn -0.5510 0.0000 -0.8345
vn 0.5448 0.0000 -0.8385
vn 0.8385 0.0000 0.5448
vn -0.8387 0.0000 -0.5446
vn 0.0137 0.0000 0.9999
vn 0.8311 0.0000 -0.5560
usemtl None
s off
f 85//23 87//23 86//23
f 85//23 90//23 87//23
f 90//23 88//23 87//23
f 85//23 91//23 90//23
f 89//23 88//23 90//23
f 85//23 83//23 91//23
f 83//23 89//23 91//23
f 83//23 82//23 89//23
f 82//23 88//23 89//23
f 85//23 84//23 83//23
f 81//23 88//23 82//23
f 98//24 96//24 97//24
f 101//24 96//24 98//24
f 99//24 101//24 98//24
f 102//24 96//24 101//24
f 99//24 100//24 101//24
f 94//24 96//24 102//24
f 100//24 94//24 102//24
f 93//24 94//24 100//24
f 99//24 93//24 100//24
f 95//24 96//24 94//24
f 99//24 92//24 93//24
s 1
f 104//25 106//25 105//25 103//25
f 106//25 108//26 107//26 105//25
f 108//26 110//26 109//26 107//26
f 110//26 112//27 111//27 109//26
f 112//27 114//28 113//28 111//27
f 114//28 116//29 115//29 113//28
f 116//29 118//30 117//30 115//29
f 118//30 104//25 103//25 117//30
f 120//31 122//32 121//32 119//31
f 122//32 124//33 123//33 121//32
f 124//33 120//31 119//31 123//33
o Plane.002
v 3.092165 0.000000 2.403342
v 7.898849 0.000000 2.403342
v 3.092165 0.000000 -2.403342
v 7.898849 0.000000 -2.403342
v 3.450819 0.000000 -2.044687
v 3.450819 0.000000 2.044687
v 7.540194 0.000000 2.044687
v 7.540194 0.000000 -2.044687
v 3.304611 0.100555 -2.190896
v 3.304611 0.100555 2.190896
v 7.686402 0.100555 2.190896
v 7.686402 0.100555 -2.190896
v 3.092165 0.100555 -2.403342
v 3.092165 0.100555 2.403342
v 7.898849 0.100555 2.403342
v 7.898849 0.100555 -2.403342
v 3.092165 0.180646 -2.403342
v 3.092165 0.180646 2.403342
v 7.898849 0.180646 2.403342
v 7.898849 0.180646 -2.403342
v 3.304611 0.180646 -2.190896
v 3.304611 0.180646 2.190896
v 7.686402 0.180646 2.190896
v 7.686402 0.180646 -2.190896
vn 0.0000 -1.0000 0.0000
vn 1.0000 0.0000 0.0000
vn -1.0000 0.0000 0.0000
vn 0.0000 0.0000 -1.0000
vn 0.0000 0.0000 1.0000
vn 0.0000 1.0000 0.0000
usemtl None
s off
f 130//34 129//34 132//34 131//34
f 130//34 125//34 127//34 129//34
f 131//34 126//34 125//34 130//34
f 132//34 128//34 126//34 131//34
f 129//34 127//34 128//34 132//34
f 126//35 128//35 140//35 139//35
f 127//36 125//36 138//36 137//36
f 128//37 127//37 137//37 140//37
f 125//38 126//38 139//38 138//38
f 133//39 134//39 135//39 136//39
f 134//35 133//35 145//35 146//35
f 136//36 135//36 147//36 148//36
f 138//38 139//38 143//38 142//38
f 140//37 137//37 141//37 144//37
f 146//39 145//39 141//39 142//39
f 147//39 146//39 142//39 143//39
f 148//39 147//39 143//39 144//39
f 145//39 148//39 144//39 141//39
f 139//35 140//35 144//35 143//35
f 133//38 136//38 148//38 145//38
f 137//36 138//36 142//36 141//36
f 135//37 134//37 146//37 147//37
