# Blender v2.79 (sub 0) OBJ File: ''
# www.blender.org
mtllib 1.mtl
o Plane.002
v 3.092165 0.000000 2.403342
v 7.898849 0.000000 2.403342
v 3.092165 0.000000 -2.403342
v 7.898849 0.000000 -2.403342
v 3.450819 0.000000 -2.044687
v 3.450819 0.000000 2.044687
v 7.540194 0.000000 2.044687
v 7.540194 0.000000 -2.044687
v 3.304611 0.100555 -2.190896
v 3.304611 0.100555 2.190896
v 7.686402 0.100555 2.190896
v 7.686402 0.100555 -2.190896
v 3.092165 0.100555 -2.403342
v 3.092165 0.100555 2.403342
v 7.898849 0.100555 2.403342
v 7.898849 0.100555 -2.403342
v 3.092165 0.180646 -2.403342
v 3.092165 0.180646 2.403342
v 7.898849 0.180646 2.403342
v 7.898849 0.180646 -2.403342
v 3.304611 0.180646 -2.190896
v 3.304611 0.180646 2.190896
v 7.686402 0.180646 2.190896
v 7.686402 0.180646 -2.190896
vn 0.0000 -1.0000 0.0000
vn 1.0000 0.0000 0.0000
vn -1.0000 0.0000 0.0000
vn 0.0000 0.0000 -1.0000
vn 0.0000 0.0000 1.0000
vn 0.0000 1.0000 0.0000
usemtl None
s off
f 6//1 5//1 8//1 7//1
f 6//1 1//1 3//1 5//1
f 7//1 2//1 1//1 6//1
f 8//1 4//1 2//1 7//1
f 5//1 3//1 4//1 8//1
f 2//2 4//2 16//2 15//2
f 3//3 1//3 14//3 13//3
f 4//4 3//4 13//4 16//4
f 1//5 2//5 15//5 14//5
f 9//6 10//6 11//6 12//6
f 10//2 9//2 21//2 22//2
f 12//3 11//3 23//3 24//3
f 14//5 15//5 19//5 18//5
f 16//4 13//4 17//4 20//4
f 22//6 21//6 17//6 18//6
f 23//6 22//6 18//6 19//6
f 24//6 23//6 19//6 20//6
f 21//6 24//6 20//6 17//6
f 15//2 16//2 20//2 19//2
f 9//5 12//5 24//5 21//5
f 13//3 14//3 18//3 17//3
f 11//4 10//4 22//4 23//4
