# Blender v2.79 (sub 0) OBJ File: ''
# www.blender.org
mtllib X.mtl
o Text.005_CUText.007
v 7.189578 0.178876 0.403342
v 6.991211 0.178876 0.403342
v 6.601202 0.178876 -0.070720
v 6.206151 0.178876 0.403342
v 6.006103 0.178876 0.403342
v 6.500338 0.178876 -0.190076
v 6.041406 0.178876 -0.743149
v 6.241453 0.178876 -0.743149
v 6.601202 0.178876 -0.306070
v 6.959271 0.178876 -0.743149
v 7.157638 0.178876 -0.743149
v 6.700386 0.178876 -0.190076
v 7.189578 0.051115 0.403342
v 6.991211 0.051115 0.403342
v 6.601202 0.051115 -0.070720
v 6.206151 0.051115 0.403342
v 6.006103 0.051115 0.403342
v 6.500338 0.051115 -0.190076
v 6.041406 0.051115 -0.743149
v 6.241453 0.051115 -0.743149
v 6.601202 0.051115 -0.306070
v 6.959271 0.051115 -0.743149
v 7.157638 0.051115 -0.743149
v 6.700386 0.051115 -0.190076
v 7.189578 0.051115 0.403342
v 7.189578 0.178876 0.403342
v 6.991211 0.051115 0.403342
v 6.991211 0.178876 0.403342
v 6.601202 0.051115 -0.070720
v 6.601202 0.178876 -0.070720
v 6.206151 0.051115 0.403342
v 6.206151 0.178876 0.403342
v 6.006103 0.051115 0.403342
v 6.006103 0.178876 0.403342
v 6.500338 0.051115 -0.190076
v 6.500338 0.178876 -0.190076
v 6.041406 0.051115 -0.743149
v 6.041406 0.178876 -0.743149
v 6.241453 0.051115 -0.743149
v 6.241453 0.178876 -0.743149
v 6.601202 0.051115 -0.306070
v 6.601202 0.178876 -0.306070
v 6.959271 0.051115 -0.743149
v 6.959271 0.178876 -0.743149
v 7.157638 0.051115 -0.743149
v 7.157638 0.178876 -0.743149
v 6.700386 0.051115 -0.190076
v 6.700386 0.178876 -0.190076
vn 0.0000 1.0000 0.0000
vn 0.0000 -1.0000 0.0000
vn 0.9044 0.0000 0.4266
vn -0.4270 0.0000 0.9042
vn -0.0031 0.0000 1.0000
vn 0.4241 0.0000 0.9056
vn -0.9055 0.0000 0.4243
vn -1.0000 0.0000 -0.0009
vn -0.9051 0.0000 -0.4251
vn 0.4269 0.0000 -0.9043
vn -0.0011 0.0000 -1.0000
vn -0.4279 0.0000 -0.9038
vn 0.9048 0.0000 -0.4259
vn 1.0000 0.0000 0.0007
usemtl None
s off
f 6//1 8//1 7//1
f 6//1 9//1 8//1
f 9//1 11//1 10//1
f 9//1 12//1 11//1
f 6//1 12//1 9//1
f 5//1 12//1 6//1
f 5//1 3//1 12//1
f 3//1 1//1 12//1
f 5//1 4//1 3//1
f 2//1 1//1 3//1
f 20//2 18//2 19//2
f 21//2 18//2 20//2
f 23//2 21//2 22//2
f 24//2 21//2 23//2
f 24//2 18//2 21//2
f 24//2 17//2 18//2
f 15//2 17//2 24//2
f 13//2 15//2 24//2
f 16//2 17//2 15//2
f 13//2 14//2 15//2
s 1
f 26//3 28//4 27//4 25//3
f 28//4 30//5 29//5 27//4
f 30//5 32//6 31//6 29//5
f 32//6 34//7 33//7 31//6
f 34//7 36//8 35//8 33//7
f 36//8 38//9 37//9 35//8
f 38//9 40//10 39//10 37//9
f 40//10 42//11 41//11 39//10
f 42//11 44//12 43//12 41//11
f 44//12 46//13 45//13 43//12
f 46//13 48//14 47//14 45//13
f 48//14 26//3 25//3 47//14
