# Blender v2.79 (sub 0) OBJ File: ''
# www.blender.org
mtllib Z.mtl
o Text.004_CUText.006
v 4.259483 0.167689 0.286695
v 5.074847 0.167689 0.286695
v 4.473031 0.167689 1.110379
v 5.074847 0.167689 1.110379
v 5.074847 0.167689 1.232406
v 4.222043 0.167689 1.232406
v 4.823859 0.167689 0.408722
v 4.259483 0.167689 0.408722
v 4.259483 0.062302 0.286695
v 5.074847 0.062302 0.286695
v 4.473031 0.062302 1.110379
v 5.074847 0.062302 1.110379
v 5.074847 0.062302 1.232406
v 4.222043 0.062302 1.232406
v 4.823859 0.062302 0.408722
v 4.259483 0.062302 0.408722
v 4.259483 0.062302 0.286695
v 4.259483 0.167689 0.286695
v 5.074847 0.062302 0.286695
v 5.074847 0.167689 0.286695
v 4.473031 0.062302 1.110379
v 4.473031 0.167689 1.110379
v 5.074847 0.062302 1.110379
v 5.074847 0.167689 1.110379
v 5.074847 0.062302 1.232406
v 5.074847 0.167689 1.232406
v 4.222043 0.062302 1.232406
v 4.222043 0.167689 1.232406
v 4.823859 0.062302 0.408722
v 4.823859 0.167689 0.408722
v 4.259483 0.062302 0.408722
v 4.259483 0.167689 0.408722
vn 0.0000 1.0000 0.0000
vn 0.0000 -1.0000 0.0000
vn -0.7071 0.0000 -0.7071
vn 0.8916 0.0000 -0.4528
vn 0.7071 0.0000 -0.7071
vn 0.7071 0.0000 0.7071
vn -0.8916 0.0000 0.4528
vn -0.7071 0.0000 0.7071
usemtl None
s off
f 8//1 2//1 1//1
f 8//1 7//1 2//1
f 7//1 3//1 2//1
f 6//1 3//1 7//1
f 6//1 4//1 3//1
f 6//1 5//1 4//1
f 10//2 16//2 9//2
f 15//2 16//2 10//2
f 11//2 15//2 10//2
f 11//2 14//2 15//2
f 12//2 14//2 11//2
f 13//2 14//2 12//2
s 1
f 18//3 20//4 19//4 17//3
f 20//4 22//4 21//4 19//4
f 22//4 24//5 23//5 21//4
f 24//5 26//6 25//6 23//5
f 26//6 28//7 27//7 25//6
f 28//7 30//7 29//7 27//7
f 30//7 32//8 31//8 29//7
f 32//8 18//3 17//3 31//8
